<mxfile host="app.diagrams.net" agent="Mozilla/5.0 (X11; Linux x86_64) AppleWebKit/537.36 (KHTML, like Gecko) Chrome/131.0.0.0 Safari/537.36" version="25.0.0">
  <diagram name="Page-1" id="xfRIXW8arl8oprNL4MX8">
    <mxGraphModel dx="1093" dy="816" grid="1" gridSize="11" guides="1" tooltips="1" connect="1" arrows="1" fold="1" page="1" pageScale="1" pageWidth="850" pageHeight="1100" math="0" shadow="0">
      <root>
        <mxCell id="0" />
        <mxCell id="1" parent="0" />
        <mxCell id="FovKvy1exhWTvtkhbvpM-18" value="" style="group" vertex="1" connectable="0" parent="1">
          <mxGeometry x="132" y="352" width="132" height="132" as="geometry" />
        </mxCell>
        <mxCell id="FovKvy1exhWTvtkhbvpM-4" value="&lt;font style=&quot;font-size: 16px;&quot;&gt;USER MICROSERVICE (V1)&lt;/font&gt;" style="shape=hexagon;perimeter=hexagonPerimeter2;whiteSpace=wrap;html=1;fixedSize=1;" vertex="1" parent="FovKvy1exhWTvtkhbvpM-18">
          <mxGeometry width="132" height="132" as="geometry" />
        </mxCell>
        <mxCell id="FovKvy1exhWTvtkhbvpM-12" value="" style="shape=image;verticalLabelPosition=bottom;labelBackgroundColor=default;verticalAlign=top;aspect=fixed;imageAspect=0;image=https://miro.medium.com/v2/resize:fit:618/0*FBXoiXHbZe5ssPho.png;imageBorder=none;dashed=1;" vertex="1" parent="FovKvy1exhWTvtkhbvpM-18">
          <mxGeometry x="20.25" y="100.86999999999995" width="90" height="29.13" as="geometry" />
        </mxCell>
        <mxCell id="FovKvy1exhWTvtkhbvpM-19" value="" style="group" vertex="1" connectable="0" parent="1">
          <mxGeometry x="374" y="352" width="132" height="132" as="geometry" />
        </mxCell>
        <mxCell id="FovKvy1exhWTvtkhbvpM-7" value="&lt;font style=&quot;font-size: 16px;&quot;&gt;USER MICROSERVICE (V2)&lt;/font&gt;" style="shape=hexagon;perimeter=hexagonPerimeter2;whiteSpace=wrap;html=1;fixedSize=1;" vertex="1" parent="FovKvy1exhWTvtkhbvpM-19">
          <mxGeometry width="132" height="132" as="geometry" />
        </mxCell>
        <mxCell id="FovKvy1exhWTvtkhbvpM-13" value="" style="shape=image;verticalLabelPosition=bottom;labelBackgroundColor=default;verticalAlign=top;aspect=fixed;imageAspect=0;image=https://miro.medium.com/v2/resize:fit:618/0*FBXoiXHbZe5ssPho.png;imageBorder=none;dashed=1;" vertex="1" parent="FovKvy1exhWTvtkhbvpM-19">
          <mxGeometry x="21" y="100.86999999999995" width="90" height="29.13" as="geometry" />
        </mxCell>
        <mxCell id="FovKvy1exhWTvtkhbvpM-20" value="" style="group" vertex="1" connectable="0" parent="1">
          <mxGeometry x="616" y="352" width="132" height="132" as="geometry" />
        </mxCell>
        <mxCell id="FovKvy1exhWTvtkhbvpM-8" value="&lt;font style=&quot;font-size: 16px;&quot;&gt;ORDER MICROSERVICE&lt;/font&gt;" style="shape=hexagon;perimeter=hexagonPerimeter2;whiteSpace=wrap;html=1;fixedSize=1;" vertex="1" parent="FovKvy1exhWTvtkhbvpM-20">
          <mxGeometry width="132" height="132" as="geometry" />
        </mxCell>
        <mxCell id="FovKvy1exhWTvtkhbvpM-14" value="" style="shape=image;verticalLabelPosition=bottom;labelBackgroundColor=default;verticalAlign=top;aspect=fixed;imageAspect=0;image=https://miro.medium.com/v2/resize:fit:618/0*FBXoiXHbZe5ssPho.png;imageBorder=none;dashed=1;" vertex="1" parent="FovKvy1exhWTvtkhbvpM-20">
          <mxGeometry x="21" y="99.86999999999995" width="90" height="29.13" as="geometry" />
        </mxCell>
        <mxCell id="FovKvy1exhWTvtkhbvpM-21" value="" style="group" vertex="1" connectable="0" parent="1">
          <mxGeometry x="616" y="572" width="132" height="132" as="geometry" />
        </mxCell>
        <mxCell id="FovKvy1exhWTvtkhbvpM-11" value="&lt;span style=&quot;font-size: 18px;&quot;&gt;ORDER DATABASE&lt;/span&gt;&lt;div&gt;&lt;span style=&quot;font-size: 18px;&quot;&gt;&lt;br&gt;&lt;/span&gt;&lt;/div&gt;" style="shape=cylinder3;whiteSpace=wrap;html=1;boundedLbl=1;backgroundOutline=1;size=15;" vertex="1" parent="FovKvy1exhWTvtkhbvpM-21">
          <mxGeometry width="132" height="132" as="geometry" />
        </mxCell>
        <mxCell id="FovKvy1exhWTvtkhbvpM-17" value="" style="shape=image;verticalLabelPosition=bottom;labelBackgroundColor=default;verticalAlign=top;aspect=fixed;imageAspect=0;image=https://1000logos.net/wp-content/uploads/2020/08/MongoDB-Logo.png;clipPath=inset(23.4% 0.33% 23.4% 0%);" vertex="1" parent="FovKvy1exhWTvtkhbvpM-21">
          <mxGeometry x="22.170000000000073" y="99" width="98.67" height="33" as="geometry" />
        </mxCell>
        <mxCell id="FovKvy1exhWTvtkhbvpM-22" value="" style="group" vertex="1" connectable="0" parent="1">
          <mxGeometry x="330" y="528" width="220" height="44" as="geometry" />
        </mxCell>
        <mxCell id="FovKvy1exhWTvtkhbvpM-9" value="&lt;font style=&quot;font-size: 14px;&quot;&gt;Event Driven System&lt;/font&gt;&lt;div&gt;&lt;font style=&quot;font-size: 14px;&quot;&gt;&lt;br&gt;&lt;/font&gt;&lt;/div&gt;" style="shape=cylinder3;whiteSpace=wrap;html=1;boundedLbl=1;backgroundOutline=1;size=15;direction=south;" vertex="1" parent="FovKvy1exhWTvtkhbvpM-22">
          <mxGeometry width="220" height="44" as="geometry" />
        </mxCell>
        <mxCell id="FovKvy1exhWTvtkhbvpM-15" value="" style="shape=image;verticalLabelPosition=bottom;labelBackgroundColor=default;verticalAlign=top;aspect=fixed;imageAspect=0;image=https://upload.wikimedia.org/wikipedia/commons/thumb/7/71/RabbitMQ_logo.svg/1280px-RabbitMQ_logo.svg.png;" vertex="1" parent="FovKvy1exhWTvtkhbvpM-22">
          <mxGeometry x="40" y="23.629999999999995" width="111" height="17.37" as="geometry" />
        </mxCell>
        <mxCell id="FovKvy1exhWTvtkhbvpM-23" value="" style="group" vertex="1" connectable="0" parent="1">
          <mxGeometry x="132" y="572" width="132" height="132" as="geometry" />
        </mxCell>
        <mxCell id="FovKvy1exhWTvtkhbvpM-10" value="&lt;font style=&quot;font-size: 18px;&quot;&gt;USER DATABASE&lt;/font&gt;&lt;div&gt;&lt;font style=&quot;font-size: 18px;&quot;&gt;&lt;br&gt;&lt;/font&gt;&lt;/div&gt;" style="shape=cylinder3;whiteSpace=wrap;html=1;boundedLbl=1;backgroundOutline=1;size=15;" vertex="1" parent="FovKvy1exhWTvtkhbvpM-23">
          <mxGeometry width="132" height="132" as="geometry" />
        </mxCell>
        <mxCell id="FovKvy1exhWTvtkhbvpM-16" value="" style="shape=image;verticalLabelPosition=bottom;labelBackgroundColor=default;verticalAlign=top;aspect=fixed;imageAspect=0;image=https://1000logos.net/wp-content/uploads/2020/08/MongoDB-Logo.png;clipPath=inset(23.4% 0.33% 23.4% 0%);" vertex="1" parent="FovKvy1exhWTvtkhbvpM-23">
          <mxGeometry x="16.659999999999997" y="99" width="98.67" height="33" as="geometry" />
        </mxCell>
        <mxCell id="FovKvy1exhWTvtkhbvpM-24" value="" style="group" vertex="1" connectable="0" parent="1">
          <mxGeometry x="132" y="187" width="616" height="121" as="geometry" />
        </mxCell>
        <mxCell id="FovKvy1exhWTvtkhbvpM-1" value="&lt;font style=&quot;font-size: 20px;&quot;&gt;API GATEWAY&lt;/font&gt;" style="rounded=0;whiteSpace=wrap;html=1;strokeWidth=2;" vertex="1" parent="FovKvy1exhWTvtkhbvpM-24">
          <mxGeometry y="33" width="616" height="88" as="geometry" />
        </mxCell>
        <mxCell id="FovKvy1exhWTvtkhbvpM-2" value="" style="shape=image;verticalLabelPosition=bottom;labelBackgroundColor=default;verticalAlign=top;aspect=fixed;imageAspect=0;image=https://media.trustradius.com/vendor-logos/2V/Hk/9T8XEAI88GT3.PNG;" vertex="1" parent="FovKvy1exhWTvtkhbvpM-24">
          <mxGeometry x="528" y="38.5" width="77" height="77" as="geometry" />
        </mxCell>
        <mxCell id="FovKvy1exhWTvtkhbvpM-3" value="&lt;b&gt;Kong API Gateway&lt;/b&gt;" style="rounded=0;whiteSpace=wrap;html=1;dashed=1;strokeWidth=2;fillColor=none;" vertex="1" parent="FovKvy1exhWTvtkhbvpM-24">
          <mxGeometry x="495" width="121" height="33" as="geometry" />
        </mxCell>
        <mxCell id="FovKvy1exhWTvtkhbvpM-25" value="" style="endArrow=classic;html=1;rounded=0;exitX=0.106;exitY=0.989;exitDx=0;exitDy=0;exitPerimeter=0;entryX=0.5;entryY=0;entryDx=0;entryDy=0;" edge="1" parent="1" source="FovKvy1exhWTvtkhbvpM-1" target="FovKvy1exhWTvtkhbvpM-4">
          <mxGeometry width="50" height="50" relative="1" as="geometry">
            <mxPoint x="275" y="336" as="sourcePoint" />
            <mxPoint x="325" y="286" as="targetPoint" />
          </mxGeometry>
        </mxCell>
        <mxCell id="FovKvy1exhWTvtkhbvpM-29" style="edgeStyle=orthogonalEdgeStyle;rounded=0;orthogonalLoop=1;jettySize=auto;html=1;exitX=0.5;exitY=1;exitDx=0;exitDy=0;entryX=0.5;entryY=0;entryDx=0;entryDy=0;entryPerimeter=0;" edge="1" parent="1" source="FovKvy1exhWTvtkhbvpM-12" target="FovKvy1exhWTvtkhbvpM-10">
          <mxGeometry relative="1" as="geometry" />
        </mxCell>
        <mxCell id="FovKvy1exhWTvtkhbvpM-31" value="" style="endArrow=classic;html=1;rounded=0;exitX=1;exitY=0.75;exitDx=0;exitDy=0;entryX=0.5;entryY=1;entryDx=0;entryDy=0;entryPerimeter=0;" edge="1" parent="1" source="FovKvy1exhWTvtkhbvpM-4" target="FovKvy1exhWTvtkhbvpM-9">
          <mxGeometry width="50" height="50" relative="1" as="geometry">
            <mxPoint x="396" y="490" as="sourcePoint" />
            <mxPoint x="446" y="440" as="targetPoint" />
          </mxGeometry>
        </mxCell>
        <mxCell id="FovKvy1exhWTvtkhbvpM-32" value="" style="endArrow=classic;html=1;rounded=0;entryX=0;entryY=0.5;entryDx=0;entryDy=0;entryPerimeter=0;exitX=0.5;exitY=1;exitDx=0;exitDy=0;" edge="1" parent="1" source="FovKvy1exhWTvtkhbvpM-13" target="FovKvy1exhWTvtkhbvpM-9">
          <mxGeometry width="50" height="50" relative="1" as="geometry">
            <mxPoint x="473" y="495" as="sourcePoint" />
            <mxPoint x="515" y="587" as="targetPoint" />
          </mxGeometry>
        </mxCell>
        <mxCell id="FovKvy1exhWTvtkhbvpM-34" value="" style="endArrow=classic;html=1;rounded=0;entryX=0.5;entryY=0;entryDx=0;entryDy=0;entryPerimeter=0;exitX=0.5;exitY=1;exitDx=0;exitDy=0;" edge="1" parent="1" source="FovKvy1exhWTvtkhbvpM-8" target="FovKvy1exhWTvtkhbvpM-11">
          <mxGeometry width="50" height="50" relative="1" as="geometry">
            <mxPoint x="681.5" y="495" as="sourcePoint" />
            <mxPoint x="681.5" y="541" as="targetPoint" />
          </mxGeometry>
        </mxCell>
        <mxCell id="FovKvy1exhWTvtkhbvpM-36" value="" style="endArrow=classic;html=1;rounded=0;entryX=0;entryY=0.75;entryDx=0;entryDy=0;exitX=0.5;exitY=0;exitDx=0;exitDy=0;exitPerimeter=0;" edge="1" parent="1" source="FovKvy1exhWTvtkhbvpM-9" target="FovKvy1exhWTvtkhbvpM-8">
          <mxGeometry width="50" height="50" relative="1" as="geometry">
            <mxPoint x="638" y="495" as="sourcePoint" />
            <mxPoint x="638" y="583" as="targetPoint" />
          </mxGeometry>
        </mxCell>
        <mxCell id="FovKvy1exhWTvtkhbvpM-37" style="edgeStyle=orthogonalEdgeStyle;rounded=0;orthogonalLoop=1;jettySize=auto;html=1;exitX=0.5;exitY=1;exitDx=0;exitDy=0;entryX=0.5;entryY=0;entryDx=0;entryDy=0;" edge="1" parent="1" source="FovKvy1exhWTvtkhbvpM-1" target="FovKvy1exhWTvtkhbvpM-7">
          <mxGeometry relative="1" as="geometry" />
        </mxCell>
        <mxCell id="FovKvy1exhWTvtkhbvpM-38" value="" style="endArrow=classic;html=1;rounded=0;entryX=0.5;entryY=0;entryDx=0;entryDy=0;" edge="1" parent="1" target="FovKvy1exhWTvtkhbvpM-8">
          <mxGeometry width="50" height="50" relative="1" as="geometry">
            <mxPoint x="682" y="308" as="sourcePoint" />
            <mxPoint x="446" y="363" as="targetPoint" />
          </mxGeometry>
        </mxCell>
      </root>
    </mxGraphModel>
  </diagram>
</mxfile>
